
<svg width="9px" height="9px" viewBox="0 0 9 9" version="1.1" xmlns="http://www.w3.org/2000/svg" xmlns:xlink="http://www.w3.org/1999/xlink">
    <!-- Generator: Sketch 51.3 (57544) - http://www.bohemiancoding.com/sketch -->
    <desc>Created with Sketch.</desc>
    <defs></defs>
    <g id="Page-1" stroke="none" stroke-width="1" fill="none" fill-rule="evenodd">
        <g id="iPad-Copy-8" transform="translate(-148.000000, -477.000000)" fill="#FFFFFF" fill-rule="nonzero">
            <path d="M152.341169,480.552884 L155.730794,477.163259 C155.948473,476.94558 156.3014,476.94558 156.519079,477.163259 C156.736758,477.380938 156.736758,477.733865 156.519079,477.951544 L153.129454,481.341169 L156.519079,484.730794 C156.736758,484.948473 156.736758,485.3014 156.519079,485.519079 C156.3014,485.736758 155.948473,485.736758 155.730794,485.519079 L152.341169,482.129454 L148.951544,485.519079 C148.733865,485.736758 148.380938,485.736758 148.163259,485.519079 C147.94558,485.3014 147.94558,484.948473 148.163259,484.730794 L151.552884,481.341169 L148.163259,477.951544 C147.94558,477.733865 147.94558,477.380938 148.163259,477.163259 C148.380938,476.94558 148.733865,476.94558 148.951544,477.163259 L152.341169,480.552884 Z" id="Combined-Shape-Copy"></path>
        </g>
    </g>
</svg>