
<svg width="14px" height="14px" viewBox="0 0 14 14" version="1.1" xmlns="http://www.w3.org/2000/svg" xmlns:xlink="http://www.w3.org/1999/xlink">
    <!-- Generator: Sketch 51.3 (57544) - http://www.bohemiancoding.com/sketch -->
    <desc>Created with Sketch.</desc>
    <defs></defs>
    <g id="Page-1" stroke="none" stroke-width="1" fill="none" fill-rule="evenodd">
        <g id="iPad-Copy-8" transform="translate(-56.000000, -475.000000)">
            <g id="Group" transform="translate(55.000000, 474.000000)">
                <path d="M8.9913221,9.7586779 C8.78181898,9.54917479 8.78181898,9.20950312 8.9913221,9 C9.20082521,8.79049688 9.54049688,8.79049688 9.75,9 L14.8428727,14.0841948 C15.0523758,14.2936979 15.0523758,14.6333695 14.8428727,14.8428727 C14.6333695,15.0523758 14.2936979,15.0523758 14.0841948,14.8428727 L8.9913221,9.7586779 Z" id="Line-2" fill="#FFFFFF" fill-rule="nonzero"></path>
                <polygon id="Star" stroke="#FFFFFF" stroke-width="1.5" stroke-linecap="round" transform="translate(6.874617, 7.084083) rotate(-45.000000) translate(-6.874617, -7.084083) " points="6.87461739 10.0466999 4.09346445 11.5840835 4.62461739 8.32785289 2.37461739 6.02177758 5.48404092 5.54669994 6.87461739 2.58408348 8.26519387 5.54669994 11.3746174 6.02177758 9.12461739 8.32785289 9.65577034 11.5840835"></polygon>
            </g>
        </g>
    </g>
</svg>