
<svg width="17px" height="17px" viewBox="0 0 17 17" version="1.1" xmlns="http://www.w3.org/2000/svg" xmlns:xlink="http://www.w3.org/1999/xlink">
    <!-- Generator: Sketch 51.3 (57544) - http://www.bohemiancoding.com/sketch -->
    <desc>Created with Sketch.</desc>
    <defs></defs>
    <g id="Page-1" stroke="none" stroke-width="1" fill="none" fill-rule="evenodd">
        <g id="iPad" transform="translate(-640.000000, -144.000000)" fill="#C7C7C7" fill-rule="nonzero">
            <g id="Group" transform="translate(640.000000, 144.000000)">
                <path d="M7.66666667,15.0833333 C3.57055477,15.0833333 0.25,11.7627786 0.25,7.66666667 C0.25,3.57055477 3.57055477,0.25 7.66666667,0.25 C11.7627786,0.25 15.0833333,3.57055477 15.0833333,7.66666667 C15.0833333,11.7627786 11.7627786,15.0833333 7.66666667,15.0833333 Z M7.66666667,13.5833333 C10.9343514,13.5833333 13.5833333,10.9343514 13.5833333,7.66666667 C13.5833333,4.3989819 10.9343514,1.75 7.66666667,1.75 C4.3989819,1.75 1.75,4.3989819 1.75,7.66666667 C1.75,10.9343514 4.3989819,13.5833333 7.66666667,13.5833333 Z" id="Oval"></path>
                <path d="M11.9696699,13.0303301 C11.6767767,12.7374369 11.6767767,12.2625631 11.9696699,11.9696699 C12.2625631,11.6767767 12.7374369,11.6767767 13.0303301,11.9696699 L16.7729708,15.7123106 C17.065864,16.0052038 17.065864,16.4800776 16.7729708,16.7729708 C16.4800776,17.065864 16.0052038,17.065864 15.7123106,16.7729708 L11.9696699,13.0303301 Z" id="Line-2"></path>
            </g>
        </g>
    </g>
</svg>